<svg width="133" height="72" viewBox="0 0 133 72" fill="none" xmlns="http://www.w3.org/2000/svg">
<path d="M75.5029 0.527969C74.3521 0.83028 72.7471 1.34421 71.9294 1.70698C70.3546 2.37206 66.9324 4.57893 66.3873 5.27425C65.9633 5.75795 66.2359 6.90673 67.7804 11.26C68.2952 12.7413 68.9009 14.525 69.1432 15.19C70.0215 17.8806 71.8082 21.992 72.0202 21.8409C72.1414 21.7502 72.959 19.9666 73.8373 17.8504C74.7155 15.704 75.5938 13.5576 75.8058 13.0739C76.0178 12.5599 76.4418 11.4414 76.7446 10.5647L77.2897 8.99267H80.1062H82.9226L83.5283 10.2019C83.8615 10.8368 84.134 11.5321 84.134 11.6832C84.134 11.8646 84.4672 12.7413 84.8911 13.6483C85.3151 14.5552 85.6482 15.3714 85.6482 15.4319C85.6482 15.5226 86.3448 17.0644 87.1928 18.848L88.7373 22.1432L89.131 21.0851C89.3732 20.5107 90.2515 18.1829 91.0995 15.9458C91.9474 13.7087 92.9165 11.1693 93.2194 10.3531C93.5525 9.5066 93.9765 8.05551 94.1582 7.08811C94.5822 5.00217 94.4005 4.66963 91.4023 2.94646C86.8293 0.286121 80.2576 -0.711504 75.5029 0.527969Z" fill="white"/>
<path d="M36.5875 0.829746C28.8347 2.88546 23.6258 7.66197 21.0819 15.0988C20.2036 17.6685 20.1431 18.2428 20.1431 21.6892C20.1431 25.0146 20.2339 25.7704 20.991 28.0377C22.1721 31.6957 25.2611 36.8047 26.2908 36.8047C26.5028 36.8047 26.5937 34.1746 26.5937 28.8237C26.5937 20.0567 26.8662 17.7591 28.2593 15.0081C29.3798 12.8617 33.014 9.29445 35.1036 8.32705C43.2501 4.51794 53.0926 8.62936 55.9696 17.0034C56.8176 19.4219 56.8176 23.9263 55.9696 26.3448C54.8794 29.5795 52.82 32.3305 50.2156 34.0839C47.9745 35.6257 46.7934 36.0792 44.0375 36.5326C41.0394 36.9861 38.2532 36.5629 35.2853 35.1722C34.1042 34.5979 33.014 34.2049 32.8928 34.2653C32.7717 34.356 32.6506 35.8978 32.6506 37.7117C32.6506 41.7626 32.7414 41.8835 36.7692 42.8509C43.7044 44.5136 51.6086 42.2765 56.8479 37.1373C58.1198 35.8676 59.5735 34.1142 60.0883 33.2072L61.0271 31.605L62.8139 34.1142C64.6613 36.7443 67.296 39.5255 67.932 39.5255C68.144 39.5255 68.4771 39.7371 68.6891 39.979C69.1736 40.5534 71.2027 41.4603 74.2917 42.4882C76.3814 43.1835 77.2293 43.2742 80.5 43.2742C83.8313 43.2742 84.5582 43.1835 86.6478 42.4579C94.3098 39.7976 98.9433 35.142 101.275 27.8866C102.032 25.4681 102.123 24.7425 102.123 21.538C102.093 18.4545 101.972 17.5475 101.275 15.522C100.276 12.5594 100.034 12.1059 99.761 12.5896C99.6398 12.771 98.9736 14.5244 98.3073 16.4894C97.6411 18.4242 96.46 21.7799 95.7331 23.9565C94.976 26.1029 94.0978 28.6423 93.7949 29.5493C93.4618 30.4562 92.9167 31.9375 92.5533 32.784L91.887 34.3862H89.1008C86.0421 34.3862 86.0724 34.4165 85.1941 32.2701C84.8913 31.5143 84.3462 30.2143 83.9828 29.3981C83.6193 28.5516 83.1954 27.554 83.0742 27.1308C82.5291 25.3169 80.5303 21.0846 80.2275 21.0846C79.8035 21.0846 77.7744 25.8308 77.2899 27.8866C77.1688 28.3703 76.987 28.9144 76.8659 29.0958C76.7751 29.247 76.2905 30.3655 75.8362 31.5747C75.382 32.7538 74.8368 33.9025 74.5946 34.0839C74.3523 34.2955 73.1409 34.3862 71.4147 34.3258L68.6285 34.2351L67.6291 31.3631C67.084 29.7911 65.9029 26.5262 65.055 24.1077C64.1767 21.6892 63.359 19.18 63.1773 18.5149C63.0259 17.8498 62.6322 16.429 62.2688 15.3407C60.2397 8.81075 54.8188 3.24823 48.4591 1.22275C45.1581 0.13443 39.7977 -0.0167236 36.5875 0.829746Z" fill="white"/>
<path d="M39.646 13.2549C34.3462 14.313 31.2875 20.3592 33.6194 25.3171C35.5576 29.489 39.8277 31.5447 44.007 30.3053C46.9749 29.4588 48.2165 28.4914 49.761 25.7706C50.5182 24.4707 50.6393 23.9265 50.6696 21.9917C50.6696 20.0872 50.5484 19.4825 49.7913 18.0617C48.7011 15.9455 48.1863 15.4014 46.2178 14.2223C44.431 13.1643 41.9174 12.8015 39.646 13.2549Z" fill="white"/>
<path d="M126.926 42.7603C126.563 42.8208 125.897 43.3045 125.473 43.7882C123.807 45.7834 124.746 49.1391 127.169 49.8344C130.439 50.832 133.226 47.688 131.711 44.7556C131.378 44.0905 130.924 43.3952 130.682 43.2138C130.197 42.7906 127.926 42.5185 126.926 42.7603ZM130.5 44.3324C132.862 46.6904 129.773 50.4693 126.775 48.867C125.806 48.3531 125.231 46.6299 125.624 45.3904C126.321 43.2743 128.895 42.7301 130.5 44.3324Z" fill="white"/>
<path d="M126.684 44.4233C126.593 44.6349 126.593 45.4209 126.654 46.1767C126.714 46.9325 126.775 47.7185 126.805 47.8999C126.866 48.5045 127.441 48.3534 127.441 47.7487C127.441 46.7813 127.835 46.7511 128.713 47.5976C129.652 48.4743 130.227 48.3231 129.591 47.3255C129.319 46.9023 129.288 46.6302 129.531 46.3883C130.167 45.7535 129.924 44.6652 129.076 44.3629C128.016 43.9396 126.835 44.0001 126.684 44.4233ZM128.895 45.4814C128.955 45.7233 128.713 45.8744 128.228 45.8744C127.471 45.8744 127.229 45.5721 127.653 45.1489C127.956 44.8466 128.743 45.0582 128.895 45.4814Z" fill="white"/>
<path d="M0.094639 59.6595C-0.0567834 66.7638 -0.0264989 70.8148 0.185492 71.0264C0.336915 71.1776 1.51801 71.3892 2.78996 71.4799L5.09158 71.6613V67.8219V64.0128H6.93893C10.7851 64.0128 13.9649 62.3803 15.358 59.6897C16.4483 57.5433 16.418 54.4295 15.2672 52.3436C14.3586 50.6809 12.7838 49.4414 10.9971 48.9275C10.3308 48.7461 7.66576 48.5949 5.06129 48.5949H0.336915L0.094639 59.6595ZM9.66454 53.7645C10.7851 54.3388 10.7548 57.9666 9.63425 58.5712C9.33141 58.7224 8.1806 58.8735 7.09035 58.8735H5.09158V56.1829C5.09158 53.8552 5.15215 53.4621 5.6367 53.3412C6.4241 53.1598 9.05885 53.4319 9.66454 53.7645Z" fill="white"/>
<path d="M64.9338 49.5622C65.0246 50.1064 65.2366 51.2249 65.388 52.0714C65.5395 52.8876 65.8726 55.3363 66.1149 57.513C66.3269 59.6594 66.7508 62.9243 66.9931 64.7684C67.2657 66.5823 67.5382 68.8799 67.6291 69.817L67.8108 71.5704H71.2632C73.1712 71.5704 74.7762 71.4495 74.8671 71.2984C74.9579 71.1472 75.2002 69.9682 75.3516 68.6683C75.5333 67.3381 75.9573 64.9196 76.2602 63.2569C76.5933 61.5942 76.9264 59.4175 77.0476 58.4199C77.2293 56.727 77.2596 56.6665 77.623 57.3618C77.8652 57.7851 78.1378 58.9943 78.2287 60.0826C78.3498 61.1709 78.6829 63.408 79.0161 65.0708C79.3189 66.7335 79.6823 68.8496 79.8035 69.7566L80.0457 71.4193H83.4982H86.9809L87.2232 70.5123C87.3443 69.9984 87.6169 68.0939 87.7986 66.28C87.95 64.4359 88.2225 62.4709 88.374 61.8965C88.5254 61.3221 88.7979 59.2059 88.9797 57.2107C89.1614 55.2154 89.5248 52.5249 89.767 51.1947C89.979 49.8948 90.191 48.7762 90.191 48.7157C90.191 48.625 89.0099 48.625 87.5563 48.6553L84.9215 48.746L84.4067 52.2225C84.1039 54.1271 83.7102 57.3316 83.4982 59.3268L83.1045 62.9546L82.7108 61.1407C82.4988 60.1431 81.9234 56.9386 81.4691 54.0364L80.6211 48.746L77.5321 48.6553C74.534 48.5646 74.4431 48.5948 74.322 49.2599C74.11 50.3785 72.9894 57.0293 72.5957 59.6292C72.414 60.9593 72.1415 62.1686 72.0203 62.2895C71.8992 62.4406 71.6872 61.5639 71.5964 60.3245C71.4752 59.1152 71.1118 55.9712 70.7484 53.3411L70.0821 48.5948H67.4171H64.7823L64.9338 49.5622Z" fill="white"/>
<path d="M108.271 55.9713C107.998 65.0709 108.21 68.2149 109.089 69.5451C109.906 70.7241 111.087 71.3287 112.965 71.5101L114.419 71.6613V69.4544C114.419 67.701 114.298 67.1871 113.904 66.8545C113.419 66.522 113.359 65.615 113.207 57.6038L113.056 48.7461L110.754 48.6554L108.453 48.5647L108.271 55.9713Z" fill="white"/>
<path d="M116.236 58.3595C116.236 67.2172 116.296 68.2148 116.781 69.1519C117.447 70.4217 119.506 71.5704 121.142 71.5704H122.293V69.3636C122.293 67.5195 122.202 67.1265 121.687 66.7939C121.112 66.4312 121.081 66.0986 121.081 57.513V48.5948H118.658H116.236V58.3595Z" fill="white"/>
<path d="M29.5615 49.3508C27.0176 50.7717 27.9867 54.6412 30.9243 54.6412C31.5602 54.6412 32.3173 54.5203 32.6202 54.3389C33.9527 53.6436 34.1647 50.7717 32.9836 49.6833C32.1962 48.9578 30.5306 48.8066 29.5615 49.3508Z" fill="white"/>
<path d="M56.3634 52.8575L54.4555 53.4621V54.762C54.4555 56.0317 54.3949 56.1224 53.2441 56.5759C52.0327 57.0596 52.0327 57.0596 52.0327 58.7223V60.385H53.2138H54.3949L54.516 64.3755C54.6675 69.2729 55.0612 70.331 56.9388 71.2984C57.9382 71.8123 58.7559 71.9635 60.4518 71.9635C61.6632 71.9635 62.7837 71.8426 62.9654 71.6612C63.1168 71.51 63.238 70.5426 63.1774 69.5752C63.0866 67.8521 63.0563 67.7916 62.178 67.7009C60.6941 67.5498 59.6038 67.0056 59.4221 66.3103C59.3313 65.9777 59.301 64.5267 59.3616 63.1058L59.4524 60.5362L61.3603 60.4455L63.238 60.3548V58.2688V56.1829L61.3603 56.0922L59.4524 56.0015L59.3616 54.0969C59.2707 51.9203 59.2707 51.9203 56.3634 52.8575Z" fill="white"/>
<path d="M22.202 56.3043C21.4449 56.5764 20.8998 56.6368 20.7181 56.4554C20.5364 56.274 19.6884 56.1531 18.8102 56.1531H17.2051V63.862V71.6012L19.7187 71.5105L22.202 71.4198L22.2929 66.1294C22.3837 60.0227 22.3534 60.0832 25.1396 60.0832H26.8961V57.967V55.8508H25.1699C24.2008 55.881 22.8683 56.0624 22.202 56.3043Z" fill="white"/>
<path d="M43.0986 56.1228C42.4323 56.2437 41.5843 56.5158 41.1906 56.7274C40.585 57.06 40.4032 57.0297 39.949 56.6367C39.6159 56.3344 38.8587 56.153 38.0108 56.153H36.5874V63.6806V71.2383L37.8896 71.4197C38.5862 71.5406 39.7067 71.5709 40.373 71.5104L41.5843 71.4197L41.6752 65.9781C41.7358 62.9853 41.8266 60.4761 41.8872 60.4156C41.978 60.3552 42.6746 60.2342 43.4923 60.1435C44.5219 60.0528 45.0368 60.1435 45.3093 60.4458C45.5516 60.7482 45.6727 62.6527 45.7333 66.1595L45.8242 71.4197H48.3984H50.9725L51.0331 66.2804C51.124 59.418 51.0028 58.4506 49.7914 57.1204C48.8526 56.1228 48.7012 56.0623 46.551 55.9716C45.3093 55.9414 43.7648 56.0019 43.0986 56.1228Z" fill="white"/>
<path d="M96.1267 56.0621C95.6119 56.1528 94.6125 56.8179 93.704 57.755C91.8263 59.6294 91.2206 61.5641 91.4932 64.7686C91.7355 67.822 92.9166 69.9684 95.0365 71.1172C96.581 71.9636 96.9141 72.0241 99.5792 71.9939C101.154 71.9636 103.001 71.752 103.668 71.5404L104.879 71.1172L104.97 69.0312C105.03 67.308 104.97 66.9755 104.606 67.1267C103.637 67.4894 99.3369 68.0336 98.6403 67.8522C97.6409 67.6104 96.9444 67.0057 96.7021 66.1895L96.5204 65.5244H100.73C103.88 65.5244 105.03 65.4337 105.303 65.1314C105.515 64.8291 105.545 63.8919 105.363 61.9571C105.151 59.5084 105 59.0852 104.122 57.9969C103.607 57.3016 102.88 56.6062 102.517 56.4249C101.85 56.0621 97.5501 55.8202 96.1267 56.0621ZM100.033 60.234C101.063 61.2618 101.033 62.1688 99.9728 62.2595C98.9432 62.3199 96.7324 62.1688 96.6113 62.0478C96.2781 61.7455 96.9747 60.113 97.5501 59.841C98.61 59.327 99.246 59.4177 100.033 60.234Z" fill="white"/>
<path d="M28.6222 56.334C28.3194 56.6665 28.3799 66.3707 28.7131 67.7613C29.2582 70.1193 31.045 71.5402 33.498 71.5704H34.77V69.545C34.77 67.8822 34.6488 67.3985 34.1037 66.7939C33.4374 66.1288 33.4072 65.7963 33.3466 61.2012L33.2557 56.3037L31.045 56.213C29.8336 56.1828 28.7433 56.213 28.6222 56.334Z" fill="white"/>
</svg>
